# xmcd
#
# Track frame offsets: 
#        150
#        15527
#        30535
#        45499
#        64017
#        83090
#        95394
#        111052
#        121489
#        137255
#        150205
#        167047
#        184869
#
# Disc length: 2723 seconds
#
# Revision: 0
# Processed by: cddbd v1.5.2PL0 Copyright (c) Steve Scherf et al.
# Submitted via: ExactAudioCopy v0.95b4
#
DISCID=910aa10d
DTITLE=Anthony, James - Soul Shoes
DYEAR=2003
DGENRE=Blues
TTITLE0=Running Out Of Time
TTITLE1=You Know It's You
TTITLE2=Look A Little Closer
TTITLE3=Midlife Blues
TTITLE4=If My Tele Could Talk?
TTITLE5=My Next X Wife?
TTITLE6=You Don't Talk To Me
TTITLE7=Say It's So
TTITLE8=Bump In the Night
TTITLE9=House Ain't No Home
TTITLE10=Cold Black Coffee
TTITLE11=Havin A Real Bad Day
TTITLE12=Waiting For The Lions
EXTD=
EXTT0=
EXTT1=
EXTT2=
EXTT3=
EXTT4=
EXTT5=
EXTT6=
EXTT7=
EXTT8=
EXTT9=
EXTT10=
EXTT11=
EXTT12=
PLAYORDER=
